<svg width="133" height="52" viewBox="0 0 133 52" fill="none" xmlns="http://www.w3.org/2000/svg">
<path d="M73.0227 26.2202C71.9669 26.2202 71.0578 25.9811 70.2955 25.5028C69.5379 25.0199 68.9555 24.3546 68.5483 23.5071C68.1411 22.6596 67.9375 21.6889 67.9375 20.5952C67.9375 19.4872 68.1458 18.5095 68.5625 17.6619C68.9792 16.8097 69.5663 16.1444 70.3239 15.6662C71.0814 15.188 71.974 14.9489 73.0014 14.9489C73.83 14.9489 74.5687 15.1027 75.2173 15.4105C75.866 15.7135 76.3892 16.1397 76.7869 16.6889C77.1894 17.2382 77.4285 17.8797 77.5043 18.6136H75.4375C75.3239 18.1023 75.0634 17.6619 74.6562 17.2926C74.2538 16.9233 73.714 16.7386 73.0369 16.7386C72.4451 16.7386 71.9266 16.8949 71.4815 17.2074C71.0412 17.5152 70.6979 17.9555 70.4517 18.5284C70.2055 19.0966 70.0824 19.7689 70.0824 20.5455C70.0824 21.3409 70.2031 22.0275 70.4446 22.6051C70.6861 23.1828 71.027 23.6302 71.4673 23.9474C71.9124 24.2647 72.4356 24.4233 73.0369 24.4233C73.4394 24.4233 73.804 24.3499 74.1307 24.2031C74.4621 24.0516 74.7391 23.8362 74.9616 23.5568C75.1889 23.2775 75.3475 22.9413 75.4375 22.5483H77.5043C77.4285 23.2538 77.1989 23.8835 76.8153 24.4375C76.4318 24.9915 75.9181 25.4271 75.2741 25.7443C74.6349 26.0616 73.8845 26.2202 73.0227 26.2202ZM84.3704 26.2202C83.3477 26.2202 82.4551 25.9858 81.6928 25.517C80.9305 25.0483 80.3387 24.3925 79.9173 23.5497C79.4959 22.7069 79.2852 21.7221 79.2852 20.5952C79.2852 19.4635 79.4959 18.474 79.9173 17.6264C80.3387 16.7789 80.9305 16.1207 81.6928 15.652C82.4551 15.1832 83.3477 14.9489 84.3704 14.9489C85.3931 14.9489 86.2856 15.1832 87.0479 15.652C87.8103 16.1207 88.4021 16.7789 88.8235 17.6264C89.2449 18.474 89.4556 19.4635 89.4556 20.5952C89.4556 21.7221 89.2449 22.7069 88.8235 23.5497C88.4021 24.3925 87.8103 25.0483 87.0479 25.517C86.2856 25.9858 85.3931 26.2202 84.3704 26.2202ZM84.3775 24.4375C85.0404 24.4375 85.5896 24.2623 86.0252 23.9119C86.4608 23.5616 86.7828 23.0952 86.9911 22.5128C87.2042 21.9304 87.3107 21.2888 87.3107 20.5881C87.3107 19.892 87.2042 19.2528 86.9911 18.6705C86.7828 18.0833 86.4608 17.6122 86.0252 17.2571C85.5896 16.902 85.0404 16.7244 84.3775 16.7244C83.7099 16.7244 83.1559 16.902 82.7156 17.2571C82.2799 17.6122 81.9556 18.0833 81.7425 18.6705C81.5342 19.2528 81.43 19.892 81.43 20.5881C81.43 21.2888 81.5342 21.9304 81.7425 22.5128C81.9556 23.0952 82.2799 23.5616 82.7156 23.9119C83.1559 24.2623 83.7099 24.4375 84.3775 24.4375ZM91.9964 26V11.4545H97.1811C98.308 11.4545 99.2431 11.6487 99.9865 12.0369C100.735 12.4252 101.293 12.9626 101.663 13.6491C102.032 14.331 102.217 15.1193 102.217 16.0142C102.217 16.9044 102.03 17.688 101.656 18.3651C101.286 19.0374 100.728 19.5606 99.9794 19.9347C99.236 20.3087 98.3009 20.4957 97.174 20.4957H93.2464V18.6065H96.9751C97.6854 18.6065 98.263 18.5047 98.7081 18.3011C99.1579 18.0975 99.487 17.8016 99.6953 17.4134C99.9036 17.0251 100.008 16.5587 100.008 16.0142C100.008 15.465 99.9013 14.9891 99.6882 14.5866C99.4799 14.1842 99.1508 13.8764 98.701 13.6634C98.2559 13.4455 97.6712 13.3366 96.9467 13.3366H94.1911V26H91.9964ZM99.1768 19.4375L102.771 26H100.271L96.7479 19.4375H99.1768ZM104.717 26V15.0909H106.84V26H104.717ZM105.789 13.4077C105.42 13.4077 105.103 13.2846 104.837 13.0384C104.577 12.7874 104.447 12.4891 104.447 12.1435C104.447 11.7931 104.577 11.4948 104.837 11.2486C105.103 10.9976 105.42 10.8722 105.789 10.8722C106.158 10.8722 106.473 10.9976 106.734 11.2486C106.999 11.4948 107.131 11.7931 107.131 12.1435C107.131 12.4891 106.999 12.7874 106.734 13.0384C106.473 13.2846 106.158 13.4077 105.789 13.4077ZM113.781 26.2131C112.9 26.2131 112.114 25.9882 111.423 25.5384C110.736 25.0838 110.197 24.4375 109.804 23.5994C109.415 22.7566 109.221 21.7457 109.221 20.5668C109.221 19.3878 109.418 18.3793 109.811 17.5412C110.208 16.7031 110.753 16.0616 111.444 15.6165C112.136 15.1714 112.919 14.9489 113.795 14.9489C114.472 14.9489 115.017 15.0625 115.429 15.2898C115.845 15.5123 116.167 15.7727 116.395 16.071C116.627 16.3693 116.806 16.6321 116.934 16.8594H117.062V11.4545H119.186V26H117.112V24.3026H116.934C116.806 24.5346 116.622 24.7997 116.38 25.098C116.144 25.3963 115.817 25.6567 115.4 25.8793C114.984 26.1018 114.444 26.2131 113.781 26.2131ZM114.25 24.402C114.86 24.402 115.377 24.241 115.798 23.919C116.224 23.5923 116.546 23.1402 116.764 22.5625C116.986 21.9848 117.098 21.3125 117.098 20.5455C117.098 19.7879 116.989 19.125 116.771 18.5568C116.553 17.9886 116.234 17.5459 115.812 17.2287C115.391 16.9115 114.87 16.7528 114.25 16.7528C113.61 16.7528 113.078 16.9186 112.652 17.25C112.225 17.5814 111.904 18.0336 111.686 18.6065C111.473 19.1795 111.366 19.8258 111.366 20.5455C111.366 21.2746 111.475 21.9304 111.693 22.5128C111.911 23.0952 112.233 23.5568 112.659 23.8977C113.09 24.2339 113.62 24.402 114.25 24.402ZM126.918 26.2202C125.844 26.2202 124.918 25.9905 124.141 25.5312C123.37 25.0672 122.773 24.4162 122.352 23.5781C121.935 22.7353 121.727 21.7481 121.727 20.6165C121.727 19.4991 121.935 18.5142 122.352 17.6619C122.773 16.8097 123.36 16.1444 124.113 15.6662C124.871 15.188 125.756 14.9489 126.769 14.9489C127.385 14.9489 127.981 15.0507 128.559 15.2543C129.137 15.4579 129.655 15.7775 130.114 16.2131C130.574 16.6487 130.936 17.2145 131.201 17.9105C131.466 18.6018 131.599 19.4422 131.599 20.4318V21.1847H122.927V19.5938H129.518C129.518 19.035 129.404 18.5402 129.177 18.1094C128.95 17.6738 128.63 17.3305 128.218 17.0795C127.811 16.8286 127.333 16.7031 126.783 16.7031C126.187 16.7031 125.666 16.8499 125.221 17.1435C124.781 17.4323 124.44 17.8111 124.198 18.2798C123.961 18.7438 123.843 19.2481 123.843 19.7926V21.0355C123.843 21.7647 123.971 22.3849 124.227 22.8963C124.487 23.4077 124.849 23.7983 125.313 24.0682C125.777 24.3333 126.319 24.4659 126.94 24.4659C127.342 24.4659 127.709 24.4091 128.04 24.2955C128.372 24.1771 128.658 24.0019 128.9 23.7699C129.141 23.5379 129.326 23.2514 129.454 22.9105L131.464 23.2727C131.303 23.8646 131.014 24.383 130.597 24.8281C130.185 25.2685 129.667 25.6117 129.042 25.858C128.422 26.0994 127.714 26.2202 126.918 26.2202Z" fill="#3EAE1C"/>
<path d="M26.4392 49.6589C25.5095 44.9576 18.3041 41.1379 14.8176 39.8156C24.9865 38.6403 28.0372 47.749 36.027 50.8343C44.0169 53.9195 52.4426 50.2466 58.5439 47.1614C64.6453 44.0762 74.2331 38.9341 86 40.2564C74.6689 28.9439 64.9358 28.9439 56.3649 30.2661C48.0439 31.5498 43.3499 37.5358 40.0126 41.7917L39.9493 41.8724C44.1622 43.6354 47.5034 43.3416 52.4426 42.3132C46.9223 46.8675 39.3682 44.8107 36.027 43.3416C32.6858 41.8724 30.0709 38.4934 28.0372 34.0859C26.0034 29.6785 26.5845 18.1212 36.4628 13.9586C46.9223 9.55111 54.0405 14.5462 57.0912 19.8352C51.5225 21.892 39.5135 26.4463 36.027 28.2093C32.5405 29.9723 32.4437 34.4287 32.8311 36.4366L65.9527 23.3611C59.8514 3.52759 41.2568 3.82142 31.8142 8.96345C22.3716 14.1055 18.3041 26.5933 21.5 34.6736C11.6216 30.2661 2.17905 35.1143 0 37.1712C6.8277 38.4934 6.25737 40.9564 10.4595 44.8107C16.7061 50.5404 21.5 50.8343 26.4392 49.6589Z" fill="#3EAE1C"/>
</svg>
